<svg width="76" height="75" viewBox="0 0 76 75" fill="none" xmlns="http://www.w3.org/2000/svg">
<ellipse cx="38" cy="37.5" rx="38" ry="37.5" fill="#E9ECF4"/>
<g clip-path="url(#clip0_796_238)">
<path d="M47.6144 46.544C48.2035 47.2601 48.1084 48.3237 47.4012 48.9202C47.0895 49.183 46.7111 49.3116 46.3351 49.3116C45.8574 49.3116 45.3835 49.1047 45.0543 48.7041L37.9999 40.0893L30.9478 48.6586C30.6182 49.0591 30.1446 49.2661 29.667 49.2661C29.291 49.2661 28.9129 49.1375 28.6009 48.8747C27.8936 48.2783 27.7983 47.2146 28.3877 46.4985L35.8304 37.4546L28.3864 28.4561C27.7972 27.7399 27.8924 26.6763 28.5998 26.0799C29.3061 25.4819 30.3566 25.578 30.9467 26.2958L37.9999 34.8633L45.0519 26.294C45.6405 25.5778 46.6915 25.4808 47.3988 26.0781C48.1061 26.6745 48.2014 27.7382 47.612 28.4543L40.1693 37.4982L47.6144 46.544Z" fill="#999999"/>
</g>
<defs>
<clipPath id="clip0_796_238">
<rect width="20" height="27" fill="white" transform="translate(28 24)"/>
</clipPath>
</defs>
</svg>
